<?xml version="1.0" standalone="no"?>
<!DOCTYPE svg PUBLIC "-//W3C//DTD SVG 20010904//EN"
 "http://www.w3.org/TR/2001/REC-SVG-20010904/DTD/svg10.dtd">
<svg version="1.0" xmlns="http://www.w3.org/2000/svg"
 width="300.000000pt" height="53.000000pt" viewBox="0 0 300.000000 53.000000"
 preserveAspectRatio="xMidYMid meet">

<g transform="translate(0.000000,53.000000) scale(0.100000,-0.100000)"
fill="#000000" stroke="none">
<path d="M30 515 c0 -9 -7 -18 -15 -21 -13 -5 -15 -42 -15 -250 l0 -244 1480
0 c1307 0 1481 2 1486 15 4 8 12 15 20 15 12 0 14 43 14 250 l0 250 -1485 0
c-1327 0 -1485 -2 -1485 -15z m2960 -235 l0 -240 -1475 0 -1475 0 0 240 0 240
1475 0 1475 0 0 -240z"/>
<path d="M447 446 c-6 -15 2 -56 11 -56 3 0 14 7 24 17 19 17 26 5 8 -13 -12
-12 -70 -162 -70 -181 0 -7 11 -13 25 -13 28 0 50 31 33 48 -12 12 13 98 43
148 11 17 19 36 19 43 0 14 -37 15 -45 1 -9 -15 -25 -12 -25 5 0 19 -16 20
-23 1z"/>
<path d="M744 445 c-10 -8 -29 -15 -40 -15 -19 0 -33 -22 -34 -52 0 -13 28 -9
33 5 3 9 7 9 17 0 9 -8 19 -9 32 -2 20 11 25 39 6 39 -9 0 -9 3 0 12 9 9 15 9
23 1 9 -9 8 -18 -5 -38 -23 -34 -66 -150 -66 -175 0 -29 46 -27 55 1 4 12 2
24 -4 29 -12 7 19 104 46 145 34 50 -13 88 -63 50z m6 -219 c0 -3 -4 -8 -10
-11 -5 -3 -10 -1 -10 4 0 6 5 11 10 11 6 0 10 -2 10 -4z"/>
<path d="M941 400 c-9 -27 -8 -30 10 -30 10 0 19 3 19 8 0 4 3 17 6 30 10 35
-22 28 -35 -8z"/>
<path d="M926 337 c-21 -15 -31 -18 -34 -9 -5 16 -64 16 -80 0 -7 -7 -12 -20
-12 -30 0 -23 36 -24 49 0 6 9 11 13 11 8 0 -7 -14 -27 -60 -83 -17 -20 -12
-23 40 -23 42 0 52 4 66 25 9 14 17 39 19 55 1 17 10 37 20 44 10 7 16 18 14
24 -2 6 -15 2 -33 -11z m-39 -79 c-14 -35 -52 -55 -40 -21 8 23 33 53 45 53 4
0 2 -15 -5 -32z"/>
<path d="M1505 350 c-3 -5 -25 -10 -49 -10 -23 0 -51 -7 -62 -15 -18 -15 -16
-16 26 -11 45 6 45 6 13 -7 -43 -16 -61 -36 -69 -75 -7 -32 -6 -33 22 -30 30
3 46 34 26 47 -7 4 -7 12 -3 20 14 22 31 3 31 -35 0 -54 26 -42 49 24 12 31
26 65 31 74 6 10 10 20 10 23 0 9 -19 5 -25 -5z m-35 -60 c0 -5 -4 -10 -10
-10 -5 0 -10 5 -10 10 0 6 5 10 10 10 6 0 10 -4 10 -10z"/>
<path d="M552 328 c-15 -15 -16 -38 -1 -38 6 0 -3 -13 -21 -30 -36 -34 -35
-54 3 -58 21 -3 29 2 36 20 l8 23 7 -23 c8 -24 40 -30 53 -9 4 6 18 38 29 70
20 54 21 57 3 57 -13 0 -23 -15 -35 -55 -17 -53 -19 -54 -30 -33 -7 12 -10 37
-7 55 5 28 3 33 -14 33 -10 0 -24 -5 -31 -12z m28 -8 c0 -5 -5 -10 -11 -10 -5
0 -7 5 -4 10 3 6 8 10 11 10 2 0 4 -4 4 -10z m-37 -85 c-3 -9 -8 -14 -10 -11
-3 3 -2 9 2 15 9 16 15 13 8 -4z"/>
<path d="M971 284 c-28 -75 -27 -86 7 -82 19 2 28 9 30 26 2 12 -1 22 -7 22
-7 0 -6 13 4 36 19 45 19 54 1 54 -7 0 -23 -25 -35 -56z"/>
<path d="M1077 329 c-24 -14 -12 -32 13 -19 10 5 28 10 40 10 19 0 21 -4 16
-25 -15 -60 -25 -75 -51 -75 -29 0 -33 16 -6 25 23 7 36 34 22 48 -24 24 -71
-24 -71 -74 0 -18 6 -20 52 -17 47 3 54 6 67 33 8 16 15 45 15 65 1 34 0 35
-39 37 -22 2 -48 -2 -58 -8z m23 -53 c0 -3 -4 -8 -10 -11 -5 -3 -10 -1 -10 4
0 6 5 11 10 11 6 0 10 -2 10 -4z"/>
<path d="M1241 326 c-6 -8 -11 -18 -9 -22 1 -5 -6 -26 -15 -48 -21 -47 -21
-56 -3 -56 8 0 20 15 26 34 6 19 18 40 26 47 8 7 13 18 10 26 -4 9 3 13 19 13
30 0 30 -1 5 -67 -19 -50 -19 -53 -2 -53 21 0 59 98 49 124 -8 21 -90 22 -106
2z"/>
<path d="M1544 326 c-10 -8 -16 -18 -11 -22 4 -4 13 -2 19 4 7 7 23 12 36 12
25 0 25 -7 -4 -79 -15 -37 -13 -47 10 -38 17 7 50 102 42 122 -7 19 -66 20
-92 1z"/>
<path d="M1676 321 c-16 -17 -15 -19 14 -24 35 -8 42 -41 10 -50 -30 -8 -27
-47 4 -47 19 0 27 9 40 41 18 44 15 56 -18 70 -17 7 -13 8 18 6 24 -1 41 3 43
11 8 21 -91 16 -111 -7z m44 -95 c0 -3 -4 -8 -10 -11 -5 -3 -10 -1 -10 4 0 6
5 11 10 11 6 0 10 -2 10 -4z"/>
<path d="M1832 333 c-20 -8 -42 -59 -42 -98 0 -41 21 -48 38 -11 6 13 22 26
36 28 30 6 29 7 16 -27 -9 -23 -8 -26 7 -23 26 5 60 103 43 123 -12 14 -70 19
-98 8z m68 -40 c-1 -24 -2 -25 -11 -10 -14 23 -35 21 -53 -5 -9 -12 -16 -18
-16 -12 0 22 33 54 56 54 20 0 24 -5 24 -27z"/>
<path d="M1980 325 c-15 -19 -5 -34 12 -17 7 7 23 12 36 12 21 0 23 -3 18 -27
-4 -16 -18 -36 -32 -46 -32 -24 -31 -47 2 -47 20 0 29 9 45 45 30 67 23 89
-27 93 -28 2 -45 -2 -54 -13z"/>
<path d="M2122 328 c-15 -15 -16 -35 -2 -40 13 -4 -7 -68 -21 -68 -5 0 -9 -4
-9 -10 0 -15 116 -12 127 3 10 12 43 104 43 119 0 4 -6 8 -14 8 -9 0 -22 -24
-33 -57 -17 -49 -24 -58 -46 -61 l-26 -3 18 55 c11 30 17 57 14 60 -10 10 -38
7 -51 -6z"/>
<path d="M2305 318 c-32 -29 -48 -118 -22 -118 9 0 21 9 27 20 6 12 22 25 36
30 14 6 24 17 24 30 0 24 -22 26 -40 5 -17 -21 -24 -12 -10 14 7 14 21 21 40
21 35 0 35 -3 15 -60 -19 -53 -19 -60 -1 -60 18 0 52 100 43 124 -10 25 -80
21 -112 -6z m55 -42 c0 -3 -4 -8 -10 -11 -5 -3 -10 -1 -10 4 0 6 5 11 10 11 6
0 10 -2 10 -4z"/>
<path d="M2470 325 c-10 -12 -10 -19 -2 -27 8 -8 3 -19 -19 -39 -17 -16 -29
-34 -27 -41 7 -20 57 -22 64 -4 8 20 24 21 24 1 0 -18 34 -20 47 -2 6 6 20 38
32 70 19 53 20 57 3 57 -13 0 -23 -16 -37 -56 -18 -55 -19 -55 -32 -30 -9 17
-10 32 -4 49 6 14 7 28 4 31 -12 11 -40 6 -53 -9z m30 -5 c0 -5 -5 -10 -11
-10 -5 0 -7 5 -4 10 3 6 8 10 11 10 2 0 4 -4 4 -10z m-37 -85 c-3 -9 -8 -14
-10 -11 -3 3 -2 9 2 15 9 16 15 13 8 -4z"/>
<path d="M2323 173 c-16 -6 -17 -43 -2 -43 6 0 9 -7 5 -15 -3 -9 0 -15 10 -15
14 0 34 38 34 66 0 14 -23 17 -47 7z"/>
</g>
</svg>
