<?xml version="1.0" standalone="no"?>
<!DOCTYPE svg PUBLIC "-//W3C//DTD SVG 20010904//EN"
 "http://www.w3.org/TR/2001/REC-SVG-20010904/DTD/svg10.dtd">
<svg version="1.0" xmlns="http://www.w3.org/2000/svg"
 width="356.000000pt" height="356.000000pt" viewBox="0 0 356.000000 356.000000"
 preserveAspectRatio="xMidYMid meet">

<g transform="translate(0.000000,356.000000) scale(0.100000,-0.100000)"
fill="#000000" stroke="none">
<path d="M1595 3553 c-424 -52 -781 -222 -1072 -513 -480 -477 -646 -1175
-433 -1820 88 -270 232 -501 436 -702 154 -152 280 -242 464 -334 243 -122
510 -184 790 -184 596 0 1149 295 1475 785 195 293 291 588 302 931 11 314
-47 588 -183 856 -273 543 -782 903 -1384 977 -79 10 -327 13 -395 4z m329
-133 c990 -94 1673 -1023 1465 -1989 -102 -470 -423 -890 -848 -1109 -485
-251 -1037 -251 -1522 0 -289 148 -549 408 -697 697 -181 350 -232 732 -151
1109 151 694 740 1219 1449 1291 123 12 181 12 304 1z"/>
<path d="M1650 2926 l0 -144 -167 -6 c-93 -4 -187 -9 -210 -12 l-43 -5 0
-1040 0 -1039 210 0 210 0 0 -95 0 -95 100 0 99 0 3 92 3 93 80 8 c106 10 245
50 322 93 132 73 235 196 275 329 26 83 30 255 9 345 -45 186 -169 312 -375
381 l-68 22 38 16 c72 30 105 52 163 110 82 82 123 168 129 269 14 264 -144
454 -428 512 -52 11 -107 20 -122 20 l-28 0 0 145 0 145 -100 0 -100 0 0 -144z
m0 -691 l0 -305 -42 0 c-24 0 -53 3 -65 6 l-23 6 0 294 0 293 28 4 c15 2 44 5
65 6 l37 1 0 -305z m360 260 c16 -8 45 -32 65 -52 84 -87 87 -278 6 -390 -32
-45 -128 -99 -194 -110 l-37 -6 0 295 c0 162 3 297 6 300 7 8 119 -19 154 -37z
m-360 -1181 l0 -406 -31 6 c-17 3 -47 6 -65 6 l-34 0 0 394 0 395 38 4 c20 2
49 4 65 5 l27 2 0 -406z m367 371 c114 -34 198 -124 222 -237 14 -63 14 -193
0 -256 -14 -67 -65 -149 -116 -188 -54 -41 -138 -73 -214 -81 l-59 -6 0 398 0
398 58 -6 c31 -4 80 -13 109 -22z"/>
</g>
</svg>
